<svg xmlns="http://www.w3.org/2000/svg" viewBox="0 0 800 800" width="800" height="800" role="img" xmlns:c2pa="http://c2pa.org/manifest"><metadata><c2pa:manifest>AAAWgmp1bWIAAAAeanVtZGMycGEAEQAQgAAAqgA4m3EDYzJwYQAAABZcanVtYgAAAEdqdW1kYzJtYQARABCAAACqADibcQN1cm46YzJwYTo3ZmE2M2ZlOC1lNGY2LTRkM2UtOGQ3NC1hODU0NGQyOTFjZGUAAAADl2p1bWIAAAApanVtZGMyYXMAEQAQgAAAqgA4m3EDYzJwYS5hc3NlcnRpb25zAAAAALxqdW1iAAAARGp1bWRjYm9yABEAEIAAAKoAOJtxE2MycGEuaW5ncmVkaWVudC52MwAAAAAYYzJzaNl4ifQ2YHqH05+ddJ3eg5sAAABwY2JvcqNpZGM6Zm9ybWF0bWltYWdlL3N2Zyt4bWxqaW5zdGFuY2VJRHgseG1wOmlpZDozMzdlNjYxOS02YzBkLTQzZmItOGE5My00NDgyZmE1ODE0Y2JscmVsYXRpb25zaGlwaHBhcmVudE9mAAAB4mp1bWIAAABBanVtZGNib3IAEQAQgAAAqgA4m3ETYzJwYS5hY3Rpb25zLnYyAAAAABhjMnNowS1yW1970zYPSW3bETodggAAAZljYm9yomdhY3Rpb25zgqJmYWN0aW9ua2MycGEub3BlbmVkanBhcmFtZXRlcnOha2luZ3JlZGllbnRzgaJjdXJseC1zZWxmI2p1bWJmPWMycGEuYXNzZXJ0aW9ucy9jMnBhLmluZ3JlZGllbnQudjNkaGFzaFgg12wHlB+/lrXquiIDJ1vLUdzfTzHeQMY97mAVxslrihqkZmFjdGlvbngdY29tLmFudGhyb3BpYy5jbGF1ZGUucHJvdmlkZWRqcGFyYW1ldGVyc6F4H2NvbS5hbnRocm9waWMub3JpZ2luLWNvbmZpZGVuY2VndW5rbm93bmtkZXNjcmlwdGlvbnhmQ2xhdWRlIHByb3ZpZGVkIHRoaXMgZmlsZSBhdCB0aGUgcmVxdWVzdCBvZiBhIHVzZXIgYW5kIG1heSBoYXZlIGNyZWF0ZWQgb3IgbW9kaWZpZWQgdGhlIGZpbGUgY29udGVudHMubXNvZnR3YXJlQWdlbnShZG5hbWVmQ2xhdWRlcmFsbEFjdGlvbnNJbmNsdWRlZPUAAADIanVtYgAAAEBqdW1kY2JvcgARABCAAACqADibcRNjMnBhLmhhc2guZGF0YQAAAAAYYzJzaI5jG60LFjmMJ5HVY2gsFl8AAACAY2JvcqVjYWxnZnNoYTI1NmNwYWRNAAAAAAAAAAAAAAAAAGRoYXNoWCCj/WNyCVQVVIHhHoJ1opN3TxYxTS9AqUD96uSWJ9eQB2RuYW1lbmp1bWJmIG1hbmlmZXN0amV4Y2x1c2lvbnOBomVzdGFydBihZmxlbmd0aBkeBAAAAj5qdW1iAAAAJ2p1bWRjMmNsABEAEIAAAKoAOJtxA2MycGEuY2xhaW0udjIAAAACD2Nib3KlY2FsZ2ZzaGEyNTZpc2lnbmF0dXJleE1zZWxmI2p1bWJmPS9jMnBhL3VybjpjMnBhOjdmYTYzZmU4LWU0ZjYtNGQzZS04ZDc0LWE4NTQ0ZDI5MWNkZS9jMnBhLnNpZ25hdHVyZWppbnN0YW5jZUlEeCx4bXA6aWlkOmY4ZmFhZjM0LTg4ZTktNDg5Yy04ODNkLTAwNDNiMzMyZDc1YnJjcmVhdGVkX2Fzc2VydGlvbnODomN1cmx4LXNlbGYjanVtYmY9YzJwYS5hc3NlcnRpb25zL2MycGEuaW5ncmVkaWVudC52M2RoYXNoWCDXbAeUH7+Wteq6IgMnW8tR3N9PMd5Axj3uYBXGyWuKGqJjdXJseCpzZWxmI2p1bWJmPWMycGEuYXNzZXJ0aW9ucy9jMnBhLmFjdGlvbnMudjJkaGFzaFgg9m8Qld49+R2lgVw9yLELQwZQfxdzbYf2VXENsMeQ/5+iY3VybHgpc2VsZiNqdW1iZj1jMnBhLmFzc2VydGlvbnMvYzJwYS5oYXNoLmRhdGFkaGFzaFggwh1s8WTuxxmpoQEHMOM27UsEmWrzn5lm3N7NFkQgRiB0Y2xhaW1fZ2VuZXJhdG9yX2luZm+jZG5hbWVvQW50aHJvcGljIEZpbGVzZ3ZlcnNpb25lMS4wLjBrc3BlY1ZlcnNpb25lMi40LjAAABA4anVtYgAAAChqdW1kYzJjcwARABCAAACqADibcQNjMnBhLnNpZ25hdHVyZQAAABAIY2JvctKEWQISogEmGCFZAgowggIGMIIBjaADAgECAhRA5aAK7sI50L64g/oGQgU9Z1UTADAKBggqhkjOPQQDAzBJMRcwFQYDVQQKEw5BbnRocm9waWMsIFBCQzEuMCwGA1UEAxMlQW50aHJvcGljIENvbnRlbnQgQ3JlZGVudGlhbHMgUm9vdCBDQTAeFw0yNjA4MDcxODQzNTZaFw0yODA4MDYxOTQzNTZaMEQxFzAVBgNVBAoTDkFudGhyb3BpYywgUEJDMSkwJwYDVQQDEyBBbnRocm9waWMgQ2xhdWRlIENvbnRlbnQgU2lnbmluZzBZMBMGByqGSM49AgEGCCqGSM49AwEHA0IABJh6CmvLUBgFFNU0vUKlOVtE6djd17L5SuwX0LemFisBM3dkd/3cyjxFA3Qo5S46fX0/ihY0VZ7mfb9KF703t5OjWDBWMA4GA1UdDwEB/wQEAwIHgDAVBgNVHSUEDjAMBgorBgEEAYPoXgIBMAwGA1UdEwEB/wQCMAAwHwYDVR0jBBgwFoAUzlHiBIFOZFsj+OPEz5o+nMHXXMIwCgYIKoZIzj0EAwMDZwAwZAIwMXMdFJ4BetLLVY7ORuE9noqbbAZOZn/aArXyTwFAZfKrPzxF2vPoJNf1+UCdg1XGAjBwX1zd9WGqYkqmL5SFqw1QySjr1zJfpJM9+1rdDwSPLMOPOjKuiXjoU/pUUeG9RwmhY3BhZFkNngAAAAAAAAAAAAAAAAAAAAAAAAAAAAAAAAAAAAAAAAAAAAAAAAAAAAAAAAAAAAAAAAAAAAAAAAAAAAAAAAAAAAAAAAAAAAAAAAAAAAAAAAAAAAAAAAAAAAAAAAAAAAAAAAAAAAAAAAAAAAAAAAAAAAAAAAAAAAAAAAAAAAAAAAAAAAAAAAAAAAAAAAAAAAAAAAAAAAAAAAAAAAAAAAAAAAAAAAAAAAAAAAAAAAAAAAAAAAAAAAAAAAAAAAAAAAAAAAAAAAAAAAAAAAAAAAAAAAAAAAAAAAAAAAAAAAAAAAAAAAAAAAAAAAAAAAAAAAAAAAAAAAAAAAAAAAAAAAAAAAAAAAAAAAAAAAAAAAAAAAAAAAAAAAAAAAAAAAAAAAAAAAAAAAAAAAAAAAAAAAAAAAAAAAAAAAAAAAAAAAAAAAAAAAAAAAAAAAAAAAAAAAAAAAAAAAAAAAAAAAAAAAAAAAAAAAAAAAAAAAAAAAAAAAAAAAAAAAAAAAAAAAAAAAAAAAAAAAAAAAAAAAAAAAAAAAAAAAAAAAAAAAAAAAAAAAAAAAAAAAAAAAAAAAAAAAAAAAAAAAAAAAAAAAAAAAAAAAAAAAAAAAAAAAAAAAAAAAAAAAAAAAAAAAAAAAAAAAAAAAAAAAAAAAAAAAAAAAAAAAAAAAAAAAAAAAAAAAAAAAAAAAAAAAAAAAAAAAAAAAAAAAAAAAAAAAAAAAAAAAAAAAAAAAAAAAAAAAAAAAAAAAAAAAAAAAAAAAAAAAAAAAAAAAAAAAAAAAAAAAAAAAAAAAAAAAAAAAAAAAAAAAAAAAAAAAAAAAAAAAAAAAAAAAAAAAAAAAAAAAAAAAAAAAAAAAAAAAAAAAAAAAAAAAAAAAAAAAAAAAAAAAAAAAAAAAAAAAAAAAAAAAAAAAAAAAAAAAAAAAAAAAAAAAAAAAAAAAAAAAAAAAAAAAAAAAAAAAAAAAAAAAAAAAAAAAAAAAAAAAAAAAAAAAAAAAAAAAAAAAAAAAAAAAAAAAAAAAAAAAAAAAAAAAAAAAAAAAAAAAAAAAAAAAAAAAAAAAAAAAAAAAAAAAAAAAAAAAAAAAAAAAAAAAAAAAAAAAAAAAAAAAAAAAAAAAAAAAAAAAAAAAAAAAAAAAAAAAAAAAAAAAAAAAAAAAAAAAAAAAAAAAAAAAAAAAAAAAAAAAAAAAAAAAAAAAAAAAAAAAAAAAAAAAAAAAAAAAAAAAAAAAAAAAAAAAAAAAAAAAAAAAAAAAAAAAAAAAAAAAAAAAAAAAAAAAAAAAAAAAAAAAAAAAAAAAAAAAAAAAAAAAAAAAAAAAAAAAAAAAAAAAAAAAAAAAAAAAAAAAAAAAAAAAAAAAAAAAAAAAAAAAAAAAAAAAAAAAAAAAAAAAAAAAAAAAAAAAAAAAAAAAAAAAAAAAAAAAAAAAAAAAAAAAAAAAAAAAAAAAAAAAAAAAAAAAAAAAAAAAAAAAAAAAAAAAAAAAAAAAAAAAAAAAAAAAAAAAAAAAAAAAAAAAAAAAAAAAAAAAAAAAAAAAAAAAAAAAAAAAAAAAAAAAAAAAAAAAAAAAAAAAAAAAAAAAAAAAAAAAAAAAAAAAAAAAAAAAAAAAAAAAAAAAAAAAAAAAAAAAAAAAAAAAAAAAAAAAAAAAAAAAAAAAAAAAAAAAAAAAAAAAAAAAAAAAAAAAAAAAAAAAAAAAAAAAAAAAAAAAAAAAAAAAAAAAAAAAAAAAAAAAAAAAAAAAAAAAAAAAAAAAAAAAAAAAAAAAAAAAAAAAAAAAAAAAAAAAAAAAAAAAAAAAAAAAAAAAAAAAAAAAAAAAAAAAAAAAAAAAAAAAAAAAAAAAAAAAAAAAAAAAAAAAAAAAAAAAAAAAAAAAAAAAAAAAAAAAAAAAAAAAAAAAAAAAAAAAAAAAAAAAAAAAAAAAAAAAAAAAAAAAAAAAAAAAAAAAAAAAAAAAAAAAAAAAAAAAAAAAAAAAAAAAAAAAAAAAAAAAAAAAAAAAAAAAAAAAAAAAAAAAAAAAAAAAAAAAAAAAAAAAAAAAAAAAAAAAAAAAAAAAAAAAAAAAAAAAAAAAAAAAAAAAAAAAAAAAAAAAAAAAAAAAAAAAAAAAAAAAAAAAAAAAAAAAAAAAAAAAAAAAAAAAAAAAAAAAAAAAAAAAAAAAAAAAAAAAAAAAAAAAAAAAAAAAAAAAAAAAAAAAAAAAAAAAAAAAAAAAAAAAAAAAAAAAAAAAAAAAAAAAAAAAAAAAAAAAAAAAAAAAAAAAAAAAAAAAAAAAAAAAAAAAAAAAAAAAAAAAAAAAAAAAAAAAAAAAAAAAAAAAAAAAAAAAAAAAAAAAAAAAAAAAAAAAAAAAAAAAAAAAAAAAAAAAAAAAAAAAAAAAAAAAAAAAAAAAAAAAAAAAAAAAAAAAAAAAAAAAAAAAAAAAAAAAAAAAAAAAAAAAAAAAAAAAAAAAAAAAAAAAAAAAAAAAAAAAAAAAAAAAAAAAAAAAAAAAAAAAAAAAAAAAAAAAAAAAAAAAAAAAAAAAAAAAAAAAAAAAAAAAAAAAAAAAAAAAAAAAAAAAAAAAAAAAAAAAAAAAAAAAAAAAAAAAAAAAAAAAAAAAAAAAAAAAAAAAAAAAAAAAAAAAAAAAAAAAAAAAAAAAAAAAAAAAAAAAAAAAAAAAAAAAAAAAAAAAAAAAAAAAAAAAAAAAAAAAAAAAAAAAAAAAAAAAAAAAAAAAAAAAAAAAAAAAAAAAAAAAAAAAAAAAAAAAAAAAAAAAAAAAAAAAAAAAAAAAAAAAAAAAAAAAAAAAAAAAAAAAAAAAAAAAAAAAAAAAAAAAAAAAAAAAAAAAAAAAAAAAAAAAAAAAAAAAAAAAAAAAAAAAAAAAAAAAAAAAAAAAAAAAAAAAAAAAAAAAAAAAAAAAAAAAAAAAAAAAAAAAAAAAAAAAAAAAAAAAAAAAAAAAAAAAAAAAAAAAAAAAAAAAAAAAAAAAAAAAAAAAAAAAAAAAAAAAAAAAAAAAAAAAAAAAAAAAAAAAAAAAAAAAAAAAAAAAAAAAAAAAAAAAAAAAAAAAAAAAAAAAAAAAAAAAAAAAAAAAAAAAAAAAAAAAAAAAAAAAAAAAAAAAAAAAAAAAAAAAAAAAAAAAAAAAAAAAAAAAAAAAAAAAAAAAAAAAAAAAAAAAAAAAAAAAAAAAAAAAAAAAAAAAAAAAAAAAAAAAAAAAAAAAAAAAAAAAAAAAAAAAAAAAAAAAAAAAAAAAAAAAAAAAAAAAAAAAAAAAAAAAAAAAAAAAAAAAAAAAAAAAAAAAAAAAAAAAAAAAAAAAAAAAAAAAAAAAAAAAAAAAAAAAAAAAAAAAAAAAAAAAAAAAAAAAAAAAAAAAAAAAAAAAAAAAAAAAAAAAAAAAAAAAAAAAAAAAAAAAAAAAAAAAAAAAAAAAAAAAAAAAAAAAAAAAAAAAAAAAAAAAAAAAAAAAAAAAAAAAAAAAAAAAAAAAAAAAAAAAAAAAAAAAAAAAAAAAAAAAAAAAAAAAAAAAAAAAAAAAAAAAAAAAAAAAAAAAAAAAAAAAAAAAAAAAAAAAAAAAAAAAAAAAAAAAAAAAAAAAAAAAAAAAAAAAAAAAAAAAAAAAAAAAAAAAAAAAAAAAAAAAAAAAAAAAAAAAAAAAAAAAAAAAAAAAAAAAAAAAAAAAAAAAAAAAAAAAAAAAAAAAAAAAAAAAAAAAAAAAAAAAAAAAAAAAAAAAAAAAAAAAAAAAAAAAAAAAAAAAAAAAAAAAAAAAAAAAAAAAAAAAAAAAAAAAAAAAAAAAAAAAAAAAAAAAAAAAAAAAAAAAAAAAAAAAAAAAAAAAAAAAAAAAAAAAAAAAAAAAAAAAAAAAAAAAAAAAAAAAAAAAAAAAAAAAAAAAAAAAAAAAAAAAAAAAAAAAAAAAAAAAAAAAAAAAAAAAAAAAAAAAAAAAAAAAAAAAAAAAAAAAAAAAAAAAAAAAAAAAAAAAAAAAAAAAAAAAAAAAAAAAAAAAAAAAAAAAAAAAAAAAAAAAAAAAAAAAAAAAAAAAAAAAAAAAAAAAAAAAAAAAAAAAAAAAAAAAAAAAAAAAAAAAAAAAAAAAAAAAAAAAAAAAAAAAAAAAAAAAAAAAAAAAAAAAAAAAAAAAAAAAAAAAAAAAAAAAAAAAAAAAAAAAAAAAAAAAAAAAAAAAAAAAAAAAAAAAAAAAAAAAAAAAAAAAAAAAAAAAAAAAAAAAAAAAAAAAAAAAAAAAAAAAAAAAAAAAAAAAAAAAAAAAAAAAAAAAAAAAAAAAAAAAAAAAAAAAAAAAAAAAAAAAAAAAAAAAAAAAAAAAAAAAAAAAAAAAAAAAAAAAAAAAAAAAAAAAAAAAAAAAAAAAAAAAAAAAAAAAAAAAAAAAAAAAAAAAAAAAAAAAAAAAAAAAAAAAAAAAAAAAAAAAAAAAAAAAAAAAAAAAAAAAAAAAAAAAAAAAAAAAAAAAAAAAAAAAAAAAAAAAAAAAAAAAAAAAAAAAAAAAAAAAAAAAAAAAAAAAAAAAAAAAAAAAAAAAAAAAAAAAAAAAAAAAAAAAAAAAAAAAAAAAAAAAAAAAAAAAAAAAAAAAAAAAAAAAAAAAAAAAAAAAAAAAAAAAAAAAAAAAAAAAAAAAAAAAAAAAAAAAAAAAAAAAAAAAAAAAAAAAAAAAAAAAAAAAAAAAAAAAAAAAAAAPZYQE/mD73r+Qi8ddVm9OJxv9hAuvWj874iN76PEKVX538mGO9FttiUMEBvsAd93oNKPjCrypoUlAH5wJBb6DKyTEQ=</c2pa:manifest></metadata>
<defs>
  <linearGradient id="wash" x1="0" y1="0" x2="0" y2="1">
    <stop offset="0" stop-color="#FFFDF7"/><stop offset="1" stop-color="#EDF2E4"/>
  </linearGradient>
  <linearGradient id="cloth" x1="0" y1="0" x2="1" y2="1">
    <stop offset="0" stop-color="#FFFFFF"/><stop offset="1" stop-color="#EFEEE6"/>
  </linearGradient>
  <linearGradient id="clothB" x1="0" y1="0" x2="1" y2="1">
    <stop offset="0" stop-color="#FAF9F3"/><stop offset="1" stop-color="#E4E2D6"/>
  </linearGradient>
  <linearGradient id="sunG" x1="0" y1="0" x2="1" y2="1">
    <stop offset="0" stop-color="#F2D63A"/><stop offset="1" stop-color="#E0BA00"/>
  </linearGradient>
  <linearGradient id="earthG" x1="0" y1="0" x2="1" y2="1">
    <stop offset="0" stop-color="#5C9A3A"/><stop offset="1" stop-color="#1E4A22"/>
  </linearGradient>
  <linearGradient id="steel" x1="0" y1="0" x2="1" y2="0">
    <stop offset="0" stop-color="#B9BDC2"/><stop offset=".45" stop-color="#E7EAED"/><stop offset="1" stop-color="#9AA0A6"/>
  </linearGradient>
  <filter id="soft" x="-20%" y="-20%" width="140%" height="140%">
    <feDropShadow dx="0" dy="10" stdDeviation="14" flood-color="#1E4A22" flood-opacity=".16"/>
  </filter>
  
<linearGradient id="ocean" x1=".12" y1="0" x2=".88" y2="1"><stop offset="0" stop-color="#9ACB4E"/><stop offset=".42" stop-color="#4E9A36"/><stop offset="1" stop-color="#17471F"/></linearGradient><linearGradient id="land" x1="0" y1="0" x2=".7" y2="1"><stop offset="0" stop-color="#23632B"/><stop offset="1" stop-color="#103A19"/></linearGradient><linearGradient id="gold" x1="0" y1="1" x2="1" y2="0"><stop offset="0" stop-color="#E3B400"/><stop offset=".55" stop-color="#F6DB45"/><stop offset="1" stop-color="#E8C316"/></linearGradient><linearGradient id="leafLight" x1="0" y1="1" x2="1" y2="0"><stop offset="0" stop-color="#4E9A36"/><stop offset="1" stop-color="#8CC63F"/></linearGradient><linearGradient id="leafDeep" x1="0" y1="1" x2="1" y2="0"><stop offset="0" stop-color="#1E5626"/><stop offset="1" stop-color="#3E8A2E"/></linearGradient><radialGradient id="shine" cx=".33" cy=".28" r=".72"><stop offset="0" stop-color="#FFFFFF" stop-opacity=".20"/><stop offset="1" stop-color="#FFFFFF" stop-opacity="0"/></radialGradient><clipPath id="globeClip"><circle cx="56" cy="64" r="44"/></clipPath>
</defs>
<rect width="800" height="800" fill="url(#wash)"/>
<ellipse cx="400" cy="470" rx="290" ry="42" fill="#1E4A22" opacity=".07"/>
<g filter="url(#soft)"><rect x="380" y="430" width="24" height="270" rx="12" fill="url(#steel)"/><rect x="384" y="600" width="16" height="100" rx="8" fill="#C6CACE"/><rect x="376" y="676" width="32" height="34" rx="14" fill="#2F6B32"/><rect x="374" y="556" width="36" height="13" rx="6" fill="#7E848A"/><ellipse cx="401" cy="402" rx="31" ry="13" fill="#F2F0E6" opacity=".9" transform="rotate(86 401 402)"/><ellipse cx="345" cy="259" rx="26" ry="14" fill="#FFFFFF" opacity=".9" transform="rotate(225 345 259)"/><ellipse cx="387" cy="373" rx="40" ry="12" fill="#FFFFFF" opacity=".9" transform="rotate(93 387 373)"/><ellipse cx="450" cy="218" rx="35" ry="11" fill="#F2F0E6" opacity=".9" transform="rotate(301 450 218)"/><ellipse cx="290" cy="201" rx="33" ry="14" fill="#FFFFFF" opacity=".9" transform="rotate(229 290 201)"/><ellipse cx="360" cy="249" rx="37" ry="13" fill="#FFFFFF" opacity=".9" transform="rotate(242 360 249)"/><ellipse cx="372" cy="352" rx="38" ry="12" fill="#F2F0E6" opacity=".9" transform="rotate(108 372 352)"/><ellipse cx="362" cy="169" rx="36" ry="15" fill="#FFFFFF" opacity=".9" transform="rotate(259 362 169)"/><ellipse cx="276" cy="377" rx="32" ry="15" fill="#FFFFFF" opacity=".9" transform="rotate(142 276 377)"/><ellipse cx="443" cy="258" rx="28" ry="11" fill="#F2F0E6" opacity=".9" transform="rotate(316 443 258)"/><ellipse cx="497" cy="280" rx="35" ry="12" fill="#FFFFFF" opacity=".9" transform="rotate(348 497 280)"/><ellipse cx="290" cy="296" rx="31" ry="13" fill="#FFFFFF" opacity=".9" transform="rotate(183 290 296)"/><ellipse cx="256" cy="232" rx="36" ry="15" fill="#F2F0E6" opacity=".9" transform="rotate(210 256 232)"/><ellipse cx="496" cy="187" rx="35" ry="11" fill="#FFFFFF" opacity=".9" transform="rotate(308 496 187)"/><ellipse cx="497" cy="192" rx="39" ry="13" fill="#FFFFFF" opacity=".9" transform="rotate(310 497 192)"/><ellipse cx="373" cy="231" rx="38" ry="13" fill="#F2F0E6" opacity=".9" transform="rotate(257 373 231)"/><ellipse cx="377" cy="356" rx="38" ry="15" fill="#FFFFFF" opacity=".9" transform="rotate(103 377 356)"/><ellipse cx="516" cy="366" rx="32" ry="11" fill="#FFFFFF" opacity=".9" transform="rotate(32 516 366)"/><ellipse cx="353" cy="418" rx="38" ry="10" fill="#F2F0E6" opacity=".9" transform="rotate(106 353 418)"/><ellipse cx="343" cy="263" rx="36" ry="12" fill="#FFFFFF" opacity=".9" transform="rotate(221 343 263)"/><ellipse cx="514" cy="203" rx="33" ry="15" fill="#FFFFFF" opacity=".9" transform="rotate(317 514 203)"/><ellipse cx="367" cy="355" rx="34" ry="10" fill="#F2F0E6" opacity=".9" transform="rotate(111 367 355)"/><ellipse cx="426" cy="385" rx="35" ry="11" fill="#FFFFFF" opacity=".9" transform="rotate(71 426 385)"/><ellipse cx="540" cy="335" rx="30" ry="15" fill="#FFFFFF" opacity=".9" transform="rotate(15 540 335)"/><ellipse cx="472" cy="248" rx="32" ry="13" fill="#F2F0E6" opacity=".9" transform="rotate(323 472 248)"/><ellipse cx="315" cy="216" rx="34" ry="13" fill="#FFFFFF" opacity=".9" transform="rotate(232 315 216)"/><ellipse cx="499" cy="264" rx="32" ry="14" fill="#FFFFFF" opacity=".9" transform="rotate(339 499 264)"/><ellipse cx="399" cy="379" rx="40" ry="13" fill="#F2F0E6" opacity=".9" transform="rotate(86 399 379)"/><ellipse cx="334" cy="284" rx="32" ry="13" fill="#FFFFFF" opacity=".9" transform="rotate(197 334 284)"/><ellipse cx="518" cy="314" rx="35" ry="10" fill="#FFFFFF" opacity=".9" transform="rotate(7 518 314)"/><ellipse cx="315" cy="232" rx="36" ry="12" fill="#F2F0E6" opacity=".9" transform="rotate(226 315 232)"/><ellipse cx="355" cy="184" rx="26" ry="10" fill="#FFFFFF" opacity=".9" transform="rotate(255 355 184)"/><ellipse cx="318" cy="174" rx="30" ry="12" fill="#FFFFFF" opacity=".9" transform="rotate(243 318 174)"/><ellipse cx="313" cy="255" rx="31" ry="12" fill="#F2F0E6" opacity=".9" transform="rotate(213 313 255)"/><ellipse cx="307" cy="378" rx="30" ry="12" fill="#FFFFFF" opacity=".9" transform="rotate(133 307 378)"/><ellipse cx="401" cy="246" rx="34" ry="14" fill="#FFFFFF" opacity=".9" transform="rotate(278 401 246)"/><ellipse cx="361" cy="367" rx="37" ry="11" fill="#F2F0E6" opacity=".9" transform="rotate(112 361 367)"/><ellipse cx="433" cy="385" rx="36" ry="11" fill="#FFFFFF" opacity=".9" transform="rotate(67 433 385)"/><ellipse cx="350" cy="374" rx="38" ry="12" fill="#FFFFFF" opacity=".9" transform="rotate(116 350 374)"/><ellipse cx="440" cy="247" rx="31" ry="13" fill="#F2F0E6" opacity=".9" transform="rotate(308 440 247)"/><ellipse cx="474" cy="238" rx="29" ry="11" fill="#FFFFFF" opacity=".9" transform="rotate(319 474 238)"/><ellipse cx="313" cy="287" rx="37" ry="14" fill="#FFFFFF" opacity=".9" transform="rotate(191 313 287)"/><ellipse cx="429" cy="371" rx="37" ry="13" fill="#F2F0E6" opacity=".9" transform="rotate(66 429 371)"/><ellipse cx="426" cy="222" rx="28" ry="11" fill="#FFFFFF" opacity=".9" transform="rotate(290 426 222)"/><ellipse cx="416" cy="226" rx="31" ry="12" fill="#FFFFFF" opacity=".9" transform="rotate(286 416 226)"/><ellipse cx="301" cy="343" rx="39" ry="11" fill="#F2F0E6" opacity=".9" transform="rotate(151 301 343)"/><ellipse cx="554" cy="304" rx="38" ry="15" fill="#FFFFFF" opacity=".9" transform="rotate(2 554 304)"/><ellipse cx="243" cy="356" rx="39" ry="11" fill="#FFFFFF" opacity=".9" transform="rotate(156 243 356)"/><ellipse cx="388" cy="171" rx="35" ry="13" fill="#F2F0E6" opacity=".9" transform="rotate(268 388 171)"/><ellipse cx="368" cy="381" rx="29" ry="10" fill="#FFFFFF" opacity=".9" transform="rotate(104 368 381)"/><ellipse cx="315" cy="259" rx="37" ry="10" fill="#FFFFFF" opacity=".9" transform="rotate(212 315 259)"/><ellipse cx="503" cy="234" rx="39" ry="14" fill="#F2F0E6" opacity=".9" transform="rotate(325 503 234)"/><ellipse cx="491" cy="238" rx="26" ry="14" fill="#FFFFFF" opacity=".9" transform="rotate(324 491 238)"/><ellipse cx="436" cy="370" rx="35" ry="13" fill="#FFFFFF" opacity=".9" transform="rotate(62 436 370)"/><ellipse cx="254" cy="372" rx="35" ry="12" fill="#F2F0E6" opacity=".9" transform="rotate(149 254 372)"/><ellipse cx="390" cy="432" rx="33" ry="14" fill="#FFFFFF" opacity=".9" transform="rotate(91 390 432)"/><ellipse cx="343" cy="356" rx="33" ry="14" fill="#FFFFFF" opacity=".9" transform="rotate(127 343 356)"/><ellipse cx="461" cy="410" rx="39" ry="14" fill="#F2F0E6" opacity=".9" transform="rotate(62 461 410)"/><ellipse cx="419" cy="253" rx="35" ry="14" fill="#FFFFFF" opacity=".9" transform="rotate(296 419 253)"/><ellipse cx="477" cy="324" rx="30" ry="13" fill="#FFFFFF" opacity=".9" transform="rotate(18 477 324)"/><ellipse cx="294" cy="344" rx="37" ry="10" fill="#F2F0E6" opacity=".9" transform="rotate(152 294 344)"/><ellipse cx="461" cy="321" rx="28" ry="10" fill="#FFFFFF" opacity=".9" transform="rotate(20 461 321)"/><ellipse cx="542" cy="279" rx="27" ry="13" fill="#FFFFFF" opacity=".9" transform="rotate(351 542 279)"/><ellipse cx="354" cy="374" rx="31" ry="13" fill="#F2F0E6" opacity=".9" transform="rotate(114 354 374)"/><ellipse cx="307" cy="256" rx="29" ry="12" fill="#FFFFFF" opacity=".9" transform="rotate(211 307 256)"/><ellipse cx="478" cy="372" rx="36" ry="12" fill="#FFFFFF" opacity=".9" transform="rotate(45 478 372)"/><ellipse cx="462" cy="333" rx="31" ry="13" fill="#F2F0E6" opacity=".9" transform="rotate(29 462 333)"/><ellipse cx="413" cy="215" rx="37" ry="13" fill="#FFFFFF" opacity=".9" transform="rotate(282 413 215)"/><ellipse cx="301" cy="336" rx="33" ry="14" fill="#FFFFFF" opacity=".9" transform="rotate(155 301 336)"/><ellipse cx="274" cy="356" rx="32" ry="11" fill="#F2F0E6" opacity=".9" transform="rotate(151 274 356)"/><ellipse cx="260" cy="274" rx="27" ry="12" fill="#FFFFFF" opacity=".9" transform="rotate(193 260 274)"/><ellipse cx="254" cy="360" rx="39" ry="12" fill="#FFFFFF" opacity=".9" transform="rotate(153 254 360)"/><ellipse cx="508" cy="225" rx="30" ry="12" fill="#F2F0E6" opacity=".9" transform="rotate(323 508 225)"/><ellipse cx="498" cy="389" rx="35" ry="14" fill="#FFFFFF" opacity=".9" transform="rotate(44 498 389)"/><ellipse cx="427" cy="190" rx="36" ry="13" fill="#FFFFFF" opacity=".9" transform="rotate(285 427 190)"/><ellipse cx="490" cy="364" rx="26" ry="11" fill="#F2F0E6" opacity=".9" transform="rotate(37 490 364)"/><ellipse cx="402" cy="245" rx="27" ry="10" fill="#FFFFFF" opacity=".9" transform="rotate(279 402 245)"/><ellipse cx="450" cy="253" rx="26" ry="14" fill="#FFFFFF" opacity=".9" transform="rotate(317 450 253)"/><ellipse cx="501" cy="390" rx="35" ry="14" fill="#F2F0E6" opacity=".9" transform="rotate(44 501 390)"/><ellipse cx="509" cy="269" rx="37" ry="10" fill="#FFFFFF" opacity=".9" transform="rotate(343 509 269)"/><ellipse cx="405" cy="202" rx="36" ry="11" fill="#FFFFFF" opacity=".9" transform="rotate(276 405 202)"/><ellipse cx="391" cy="162" rx="27" ry="12" fill="#F2F0E6" opacity=".9" transform="rotate(270 391 162)"/><ellipse cx="254" cy="250" rx="29" ry="11" fill="#FFFFFF" opacity=".9" transform="rotate(203 254 250)"/><ellipse cx="392" cy="409" rx="37" ry="12" fill="#FFFFFF" opacity=".9" transform="rotate(90 392 409)"/><ellipse cx="323" cy="365" rx="31" ry="12" fill="#F2F0E6" opacity=".9" transform="rotate(132 323 365)"/><ellipse cx="491" cy="349" rx="40" ry="12" fill="#FFFFFF" opacity=".9" transform="rotate(30 491 349)"/><ellipse cx="391" cy="233" rx="36" ry="14" fill="#FFFFFF" opacity=".9" transform="rotate(269 391 233)"/><ellipse cx="339" cy="212" rx="33" ry="13" fill="#F2F0E6" opacity=".9" transform="rotate(243 339 212)"/><ellipse cx="453" cy="261" rx="27" ry="14" fill="#FFFFFF" opacity=".9" transform="rotate(323 453 261)"/><ellipse cx="492" cy="250" rx="32" ry="14" fill="#FFFFFF" opacity=".9" transform="rotate(330 492 250)"/><ellipse cx="427" cy="370" rx="29" ry="13" fill="#F2F0E6" opacity=".9" transform="rotate(67 427 370)"/><ellipse cx="358" cy="367" rx="36" ry="15" fill="#FFFFFF" opacity=".9" transform="rotate(113 358 367)"/><ellipse cx="353" cy="412" rx="32" ry="14" fill="#FFFFFF" opacity=".9" transform="rotate(107 353 412)"/><ellipse cx="315" cy="261" rx="29" ry="10" fill="#F2F0E6" opacity=".9" transform="rotate(210 315 261)"/><ellipse cx="292" cy="311" rx="28" ry="12" fill="#FFFFFF" opacity=".9" transform="rotate(173 292 311)"/><ellipse cx="329" cy="411" rx="28" ry="15" fill="#FFFFFF" opacity=".9" transform="rotate(116 329 411)"/><ellipse cx="392" cy="300" rx="96" ry="80" fill="#FFFFFF" opacity=".95"/></g><g><rect x="519" y="78" width="192" height="84" rx="42" fill="#5C9A3A"/><text x="615" y="132" text-anchor="middle" font-family="Helvetica,Arial,sans-serif" font-size="36" font-weight="700" fill="#FFFDF7">2 sleeves</text></g></svg>
